<?xml version="1.0" encoding="UTF-8" standalone="no"?>
<!-- Created with Inkscape (http://www.inkscape.org/) -->
<svg xmlns:dc="http://purl.org/dc/elements/1.1/" xmlns:cc="http://web.resource.org/cc/" xmlns:rdf="http://www.w3.org/1999/02/22-rdf-syntax-ns#" xmlns:svg="http://www.w3.org/2000/svg" xmlns="http://www.w3.org/2000/svg" xmlns:xlink="http://www.w3.org/1999/xlink" xmlns:sodipodi="http://sodipodi.sourceforge.net/DTD/sodipodi-0.dtd" xmlns:inkscape="http://www.inkscape.org/namespaces/inkscape" version="1.0" width="655" height="568" id="svg2" sodipodi:version="0.32" inkscape:version="0.45.1" sodipodi:docname="uhe01.svg" sodipodi:docbase="/home/reisio" inkscape:output_extension="org.inkscape.output.svg.inkscape">
  <metadata id="metadata2690">
    <rdf:RDF>
      <cc:Work rdf:about="">
        <dc:format>image/svg+xml</dc:format>
        <dc:type rdf:resource="http://purl.org/dc/dcmitype/StillImage"/>
      </cc:Work>
    </rdf:RDF>
  </metadata>
  <sodipodi:namedview inkscape:window-height="969" inkscape:window-width="1270" inkscape:pageshadow="2" inkscape:pageopacity="0.0" guidetolerance="10.0" gridtolerance="10.0" objecttolerance="10.0" borderopacity="1.0" bordercolor="#666666" pagecolor="#ffffff" id="base" inkscape:zoom="3.6681614" inkscape:cx="624.5" inkscape:cy="329.5" inkscape:window-x="0" inkscape:window-y="0" inkscape:current-layer="svg2"/>
  <defs id="defs5">
    <linearGradient id="linearGradient19061">
      <stop style="stop-color:#ffffff;stop-opacity:1" offset="0" id="stop19063"/>
      <stop style="stop-color:#ffc000;stop-opacity:1" offset="1" id="stop19065"/>
    </linearGradient>
    <linearGradient id="linearGradient19047">
      <stop style="stop-color:#ffffff;stop-opacity:1" offset="0" id="stop19049"/>
      <stop style="stop-color:#dddddd;stop-opacity:1" offset="1" id="stop19051"/>
    </linearGradient>
    <linearGradient id="linearGradient15147">
      <stop style="stop-color:#ffffff;stop-opacity:1" offset="0" id="stop15149"/>
      <stop style="stop-color:#90ffff;stop-opacity:1" offset="1" id="stop15151"/>
    </linearGradient>
    <linearGradient id="linearGradient5392">
      <stop style="stop-color:#dff8ff;stop-opacity:1" offset="0" id="stop5394"/>
      <stop style="stop-color:#00b0ff;stop-opacity:1" offset="1" id="stop5396"/>
    </linearGradient>
    <linearGradient id="linearGradient3428">
      <stop style="stop-color:#ffffee;stop-opacity:1" offset="0" id="stop3430"/>
      <stop style="stop-color:#ffff90;stop-opacity:1" offset="1" id="stop3432"/>
    </linearGradient>
    <linearGradient x1="-96.370522" y1="73.600067" x2="-96.370522" y2="207.9353" id="linearGradient3434" xlink:href="#linearGradient3428" gradientUnits="userSpaceOnUse"/>
    <linearGradient x1="-31.922733" y1="229.34889" x2="-31.922733" y2="358.31561" id="linearGradient5398" xlink:href="#linearGradient19061" gradientUnits="userSpaceOnUse" gradientTransform="translate(14.214268,-59.888275)"/>
    <linearGradient x1="441.19641" y1="396.96429" x2="441.19641" y2="419.36905" id="linearGradient8329" xlink:href="#linearGradient5392" gradientUnits="userSpaceOnUse" gradientTransform="translate(0,16)"/>
    <linearGradient x1="466.84521" y1="427.59525" x2="466.84521" y2="451.4762" id="linearGradient9306" xlink:href="#linearGradient5392" gradientUnits="userSpaceOnUse" gradientTransform="translate(0,16)"/>
    <linearGradient x1="517.7738" y1="456.38095" x2="517.7738" y2="482.4762" id="linearGradient10283" xlink:href="#linearGradient5392" gradientUnits="userSpaceOnUse" gradientTransform="translate(0,16)"/>
    <linearGradient x1="526.2619" y1="487.38095" x2="526.2619" y2="514.21429" id="linearGradient11260" xlink:href="#linearGradient5392" gradientUnits="userSpaceOnUse" gradientTransform="translate(0,16)"/>
    <linearGradient x1="198.54761" y1="360.42856" x2="198.54761" y2="385.78571" id="linearGradient13207" xlink:href="#linearGradient3428" gradientUnits="userSpaceOnUse" gradientTransform="translate(0,16)"/>
    <linearGradient x1="300.95834" y1="272.96429" x2="300.95834" y2="298.32144" id="linearGradient17097" xlink:href="#linearGradient15147" gradientUnits="userSpaceOnUse" gradientTransform="matrix(3.7241405,0,0,0.9633179,-679.16148,10.477988)"/>
    <linearGradient x1="509.65475" y1="292.89285" x2="509.65475" y2="316.03571" id="linearGradient17107" xlink:href="#linearGradient15147" gradientUnits="userSpaceOnUse" gradientTransform="translate(0,16)"/>
    <linearGradient x1="257.59521" y1="226.83333" x2="257.59521" y2="251.82143" id="linearGradient19059" xlink:href="#linearGradient19047" gradientUnits="userSpaceOnUse"/>
    <linearGradient x1="526.2619" y1="27.547619" x2="526.2619" y2="53.273811" id="linearGradient19073" xlink:href="#linearGradient19061" gradientUnits="userSpaceOnUse"/>
    <linearGradient x1="534.93451" y1="60.023808" x2="534.93451" y2="85.011902" id="linearGradient19081" xlink:href="#linearGradient19061" gradientUnits="userSpaceOnUse"/>
    <linearGradient x1="543.79169" y1="91.39286" x2="543.79169" y2="117.11905" id="linearGradient19089" xlink:href="#linearGradient19061" gradientUnits="userSpaceOnUse"/>
    <linearGradient x1="300.7738" y1="124.2381" x2="300.7738" y2="151.07143" id="linearGradient19097" xlink:href="#linearGradient19061" gradientUnits="userSpaceOnUse"/>
    <linearGradient x1="517.7738" y1="158.27127" x2="517.7738" y2="181.62158" id="linearGradient19105" xlink:href="#linearGradient19061" gradientUnits="userSpaceOnUse"/>
    <linearGradient x1="317.38095" y1="158.19048" x2="317.38095" y2="181.70238" id="linearGradient19113" xlink:href="#linearGradient19061" gradientUnits="userSpaceOnUse"/>
    <linearGradient x1="402.44644" y1="195.83333" x2="402.44644" y2="220.08333" id="linearGradient19121" xlink:href="#linearGradient19061" gradientUnits="userSpaceOnUse"/>
    <linearGradient x1="594.3512" y1="207.2738" x2="594.3512" y2="232.2619" id="linearGradient19129" xlink:href="#linearGradient19061" gradientUnits="userSpaceOnUse" gradientTransform="matrix(1.4467748,0,0,0.9917522,-283.03501,1.8126006)"/>
    <linearGradient x1="526.2619" y1="487.38095" x2="526.2619" y2="514.21429" id="linearGradient2920" xlink:href="#linearGradient5392" gradientUnits="userSpaceOnUse" gradientTransform="translate(0,16)"/>
    <linearGradient x1="517.7738" y1="456.38095" x2="517.7738" y2="482.4762" id="linearGradient2923" xlink:href="#linearGradient5392" gradientUnits="userSpaceOnUse" gradientTransform="translate(0,16)"/>
    <linearGradient x1="466.84521" y1="427.59525" x2="466.84521" y2="451.4762" id="linearGradient2926" xlink:href="#linearGradient5392" gradientUnits="userSpaceOnUse" gradientTransform="translate(0,16)"/>
    <linearGradient x1="441.19641" y1="396.96429" x2="441.19641" y2="419.36905" id="linearGradient2929" xlink:href="#linearGradient5392" gradientUnits="userSpaceOnUse" gradientTransform="translate(0,16)"/>
    <linearGradient x1="198.54761" y1="360.42856" x2="198.54761" y2="385.78571" id="linearGradient2932" xlink:href="#linearGradient3428" gradientUnits="userSpaceOnUse" gradientTransform="translate(0,16)"/>
    <linearGradient x1="509.65475" y1="292.89285" x2="509.65475" y2="316.03571" id="linearGradient2935" xlink:href="#linearGradient15147" gradientUnits="userSpaceOnUse" gradientTransform="translate(0,16)"/>
  </defs>
  <rect width="655" height="568" x="0" y="0" style="opacity:1;color:#000000;fill:#ffffff;fill-opacity:1;fill-rule:nonzero;stroke:none;stroke-width:2.08299994;stroke-linecap:round;stroke-linejoin:round;marker:none;marker-start:none;marker-mid:none;marker-end:none;stroke-miterlimit:4;stroke-dasharray:none;stroke-dashoffset:0;stroke-opacity:1;visibility:visible;display:inline;overflow:visible" id="rect2395"/>
  <path d="M 11.809524,20.699525 L 622.21429,20.699525" style="fill:none;fill-opacity:0.75;fill-rule:evenodd;stroke:#000000;stroke-width:1.31836843px;stroke-linecap:butt;stroke-linejoin:miter;stroke-opacity:1" id="path1873"/>
  <path d="M 638.45237,20.699526 L 618.6296,27.005781 L 618.6296,14.393272 L 638.45237,20.699526 z " style="fill:#000000;fill-opacity:1;stroke:none;stroke-width:1;stroke-linecap:round;stroke-linejoin:round;stroke-miterlimit:4;stroke-dasharray:none;stroke-opacity:1" id="path1875"/>
  <rect width="306.30951" height="25.833334" rx="0" ry="0" x="147.61903" y="124.7381" style="fill:url(#linearGradient19097);fill-opacity:1;stroke:#000000;stroke-width:1;stroke-linecap:round;stroke-linejoin:round;stroke-miterlimit:4;stroke-dasharray:none;stroke-opacity:1" id="rect1877"/>
  <rect width="214.78572" height="24.726191" ry="0" x="418.86905" y="28.047619" style="fill:url(#linearGradient19073);fill-opacity:1;stroke:#000000;stroke-width:1;stroke-linecap:round;stroke-linejoin:round;stroke-miterlimit:4;stroke-dasharray:none;stroke-opacity:1" id="rect2766"/>
  <rect width="197.44048" height="23.988094" x="436.21429" y="60.523808" style="fill:url(#linearGradient19081);fill-opacity:1;stroke:#000000;stroke-width:1;stroke-linecap:round;stroke-linejoin:round;stroke-miterlimit:4;stroke-dasharray:none;stroke-opacity:1" id="rect2768"/>
  <rect width="179.7262" height="24.726191" x="453.92859" y="91.89286" style="fill:url(#linearGradient19089);fill-opacity:1;stroke:#000000;stroke-width:1;stroke-linecap:round;stroke-linejoin:round;stroke-miterlimit:4;stroke-dasharray:none;stroke-opacity:1" id="rect2770"/>
  <rect width="170.48772" height="22.511894" x="231.77419" y="158.69048" style="fill:url(#linearGradient19113);fill-opacity:1;stroke:#000000;stroke-width:1;stroke-linecap:round;stroke-linejoin:round;stroke-miterlimit:4;stroke-dasharray:none;stroke-opacity:1" id="rect2772"/>
  <rect width="230.86223" height="22.350319" x="402.34268" y="158.77127" style="fill:url(#linearGradient19105);fill-opacity:1;stroke:#000000;stroke-width:1;stroke-linecap:round;stroke-linejoin:round;stroke-miterlimit:4;stroke-dasharray:none;stroke-opacity:1" id="rect2776"/>
  <rect width="102.22619" height="23.25" x="351.33334" y="196.33333" style="fill:url(#linearGradient19121);fill-opacity:1;stroke:#000000;stroke-width:1;stroke-linecap:round;stroke-linejoin:round;stroke-miterlimit:4;stroke-dasharray:none;stroke-opacity:1" id="rect4548"/>
  <rect width="112.65897" height="23.790245" x="520.52783" y="207.87273" style="fill:url(#linearGradient19129);fill-opacity:1;stroke:#000000;stroke-width:1;stroke-linecap:round;stroke-linejoin:round;stroke-miterlimit:4;stroke-dasharray:none;stroke-opacity:1" id="rect4550"/>
  <rect width="383.45346" height="23.463671" x="249.92293" y="273.91101" style="fill:url(#linearGradient17097);fill-opacity:1;stroke:#000000;stroke-width:1.00067878;stroke-linecap:round;stroke-linejoin:round;stroke-miterlimit:4;stroke-dasharray:none;stroke-opacity:1" id="rect5439"/>
  <rect width="115.88095" height="23.988094" x="199.65475" y="227.33333" style="fill:url(#linearGradient19059);fill-opacity:1;stroke:#000000;stroke-width:1;stroke-linecap:round;stroke-linejoin:round;stroke-miterlimit:4;stroke-dasharray:none;stroke-opacity:1" id="rect5441"/>
  <path d="M 29.110019,21.324442 L 29.110019,25.106154" style="fill:none;fill-opacity:0.75;fill-rule:evenodd;stroke:#000000;stroke-width:2.09664559px;stroke-linecap:butt;stroke-linejoin:miter;stroke-opacity:1" id="path6418"/>
  <path d="M 198.99243,21.585398 L 198.99243,25.36711" style="fill:none;fill-opacity:0.75;fill-rule:evenodd;stroke:#000000;stroke-width:2.09664559px;stroke-linecap:butt;stroke-linejoin:miter;stroke-opacity:1" id="path6426"/>
  <path d="M 369.13579,21.585398 L 369.13579,25.36711" style="fill:none;fill-opacity:0.75;fill-rule:evenodd;stroke:#000000;stroke-width:2.09664559px;stroke-linecap:butt;stroke-linejoin:miter;stroke-opacity:1" id="path6428"/>
  <path d="M 539.01819,21.585398 L 539.01819,25.36711" style="fill:none;fill-opacity:0.75;fill-rule:evenodd;stroke:#000000;stroke-width:2.09664559px;stroke-linecap:butt;stroke-linejoin:miter;stroke-opacity:1" id="path6430"/>
  <path d="M 45.392857,21.158451 L 45.392857,23.311787" style="fill:none;fill-opacity:0.75;fill-rule:evenodd;stroke:#000000;stroke-width:1.12px;stroke-linecap:butt;stroke-linejoin:miter;stroke-opacity:1" id="path6432"/>
  <path d="M 62.553571,21.158451 L 62.553571,23.311787" style="fill:none;fill-opacity:0.75;fill-rule:evenodd;stroke:#000000;stroke-width:1.12px;stroke-linecap:butt;stroke-linejoin:miter;stroke-opacity:1" id="path6434"/>
  <path d="M 79.529762,21.158451 L 79.529762,23.311787" style="fill:none;fill-opacity:0.75;fill-rule:evenodd;stroke:#000000;stroke-width:1.12px;stroke-linecap:butt;stroke-linejoin:miter;stroke-opacity:1" id="path6436"/>
  <path d="M 96.505953,21.158451 L 96.505953,23.311787" style="fill:none;fill-opacity:0.75;fill-rule:evenodd;stroke:#000000;stroke-width:1.12px;stroke-linecap:butt;stroke-linejoin:miter;stroke-opacity:1" id="path6438"/>
  <path d="M 113.48214,21.158451 L 113.48214,23.311787" style="fill:none;fill-opacity:0.75;fill-rule:evenodd;stroke:#000000;stroke-width:1.12px;stroke-linecap:butt;stroke-linejoin:miter;stroke-opacity:1" id="path6440"/>
  <path d="M 130.45833,21.158451 L 130.45833,23.311787" style="fill:none;fill-opacity:0.75;fill-rule:evenodd;stroke:#000000;stroke-width:1.12px;stroke-linecap:butt;stroke-linejoin:miter;stroke-opacity:1" id="path6442"/>
  <path d="M 147.61905,21.158451 L 147.61905,23.311787" style="fill:none;fill-opacity:0.75;fill-rule:evenodd;stroke:#000000;stroke-width:1.12px;stroke-linecap:butt;stroke-linejoin:miter;stroke-opacity:1" id="path6444"/>
  <path d="M 164.59524,21.158451 L 164.59524,23.311787" style="fill:none;fill-opacity:0.75;fill-rule:evenodd;stroke:#000000;stroke-width:1.12px;stroke-linecap:butt;stroke-linejoin:miter;stroke-opacity:1" id="path6446"/>
  <path d="M 181.38691,21.158451 L 181.38691,23.311787" style="fill:none;fill-opacity:0.75;fill-rule:evenodd;stroke:#000000;stroke-width:1.12px;stroke-linecap:butt;stroke-linejoin:miter;stroke-opacity:1" id="path6448"/>
  <path d="M 215.33926,21.158451 L 215.33926,23.311787" style="fill:none;fill-opacity:0.75;fill-rule:evenodd;stroke:#000000;stroke-width:1.12px;stroke-linecap:butt;stroke-linejoin:miter;stroke-opacity:1" id="path6463"/>
  <path d="M 232.49997,21.158451 L 232.49997,23.311787" style="fill:none;fill-opacity:0.75;fill-rule:evenodd;stroke:#000000;stroke-width:1.12px;stroke-linecap:butt;stroke-linejoin:miter;stroke-opacity:1" id="path6465"/>
  <path d="M 249.47616,21.158451 L 249.47616,23.311787" style="fill:none;fill-opacity:0.75;fill-rule:evenodd;stroke:#000000;stroke-width:1.12px;stroke-linecap:butt;stroke-linejoin:miter;stroke-opacity:1" id="path6467"/>
  <path d="M 266.45235,21.158451 L 266.45235,23.311787" style="fill:none;fill-opacity:0.75;fill-rule:evenodd;stroke:#000000;stroke-width:1.12px;stroke-linecap:butt;stroke-linejoin:miter;stroke-opacity:1" id="path6469"/>
  <path d="M 283.42854,21.158451 L 283.42854,23.311787" style="fill:none;fill-opacity:0.75;fill-rule:evenodd;stroke:#000000;stroke-width:1.12px;stroke-linecap:butt;stroke-linejoin:miter;stroke-opacity:1" id="path6471"/>
  <path d="M 300.40473,21.158451 L 300.40473,23.311787" style="fill:none;fill-opacity:0.75;fill-rule:evenodd;stroke:#000000;stroke-width:1.12px;stroke-linecap:butt;stroke-linejoin:miter;stroke-opacity:1" id="path6473"/>
  <path d="M 317.56545,21.158451 L 317.56545,23.311787" style="fill:none;fill-opacity:0.75;fill-rule:evenodd;stroke:#000000;stroke-width:1.12px;stroke-linecap:butt;stroke-linejoin:miter;stroke-opacity:1" id="path6475"/>
  <path d="M 334.54164,21.158451 L 334.54164,23.311787" style="fill:none;fill-opacity:0.75;fill-rule:evenodd;stroke:#000000;stroke-width:1.12px;stroke-linecap:butt;stroke-linejoin:miter;stroke-opacity:1" id="path6477"/>
  <path d="M 351.33331,21.158451 L 351.33331,23.311787" style="fill:none;fill-opacity:0.75;fill-rule:evenodd;stroke:#000000;stroke-width:1.12px;stroke-linecap:butt;stroke-linejoin:miter;stroke-opacity:1" id="path6479"/>
  <path d="M 385.47016,21.158451 L 385.47016,23.311787" style="fill:none;fill-opacity:0.75;fill-rule:evenodd;stroke:#000000;stroke-width:1.12px;stroke-linecap:butt;stroke-linejoin:miter;stroke-opacity:1" id="path6483"/>
  <path d="M 436.58325,21.158451 L 436.58325,23.311787" style="fill:none;fill-opacity:0.75;fill-rule:evenodd;stroke:#000000;stroke-width:1.12px;stroke-linecap:butt;stroke-linejoin:miter;stroke-opacity:1" id="path6489"/>
  <path d="M 453.55944,21.158451 L 453.55944,23.311787" style="fill:none;fill-opacity:0.75;fill-rule:evenodd;stroke:#000000;stroke-width:1.12px;stroke-linecap:butt;stroke-linejoin:miter;stroke-opacity:1" id="path6491"/>
  <path d="M 470.53563,21.158451 L 470.53563,23.311787" style="fill:none;fill-opacity:0.75;fill-rule:evenodd;stroke:#000000;stroke-width:1.12px;stroke-linecap:butt;stroke-linejoin:miter;stroke-opacity:1" id="path6493"/>
  <path d="M 487.69635,21.158451 L 487.69635,23.311787" style="fill:none;fill-opacity:0.75;fill-rule:evenodd;stroke:#000000;stroke-width:1.12px;stroke-linecap:butt;stroke-linejoin:miter;stroke-opacity:1" id="path6495"/>
  <path d="M 504.67254,21.158451 L 504.67254,23.311787" style="fill:none;fill-opacity:0.75;fill-rule:evenodd;stroke:#000000;stroke-width:1.12px;stroke-linecap:butt;stroke-linejoin:miter;stroke-opacity:1" id="path6497"/>
  <path d="M 521.46421,21.158451 L 521.46421,23.311787" style="fill:none;fill-opacity:0.75;fill-rule:evenodd;stroke:#000000;stroke-width:1.12px;stroke-linecap:butt;stroke-linejoin:miter;stroke-opacity:1" id="path6499"/>
  <path d="M 555.34635,21.158451 L 555.34635,23.311787" style="fill:none;fill-opacity:0.75;fill-rule:evenodd;stroke:#000000;stroke-width:1.12px;stroke-linecap:butt;stroke-linejoin:miter;stroke-opacity:1" id="path6528"/>
  <path d="M 572.50707,21.158451 L 572.50707,23.311787" style="fill:none;fill-opacity:0.75;fill-rule:evenodd;stroke:#000000;stroke-width:1.12px;stroke-linecap:butt;stroke-linejoin:miter;stroke-opacity:1" id="path6530"/>
  <path d="M 589.48326,21.158451 L 589.48326,23.311787" style="fill:none;fill-opacity:0.75;fill-rule:evenodd;stroke:#000000;stroke-width:1.12px;stroke-linecap:butt;stroke-linejoin:miter;stroke-opacity:1" id="path6532"/>
  <path d="M 606.27493,21.158451 L 606.27493,23.311787" style="fill:none;fill-opacity:0.75;fill-rule:evenodd;stroke:#000000;stroke-width:1.12px;stroke-linecap:butt;stroke-linejoin:miter;stroke-opacity:1" id="path6534"/>
  <path d="M 402.63087,21.158451 L 402.63087,23.311787" style="fill:none;fill-opacity:0.75;fill-rule:evenodd;stroke:#000000;stroke-width:1.12px;stroke-linecap:butt;stroke-linejoin:miter;stroke-opacity:1" id="path6485"/>
  <path d="M 419.60706,21.158451 L 419.60706,23.311787" style="fill:none;fill-opacity:0.75;fill-rule:evenodd;stroke:#000000;stroke-width:1.12px;stroke-linecap:butt;stroke-linejoin:miter;stroke-opacity:1" id="path6487"/>
  <path d="M 397.46429,124.18452 L 397.46429,39.488095 L 409.45833,39.488095" style="fill:none;fill-opacity:0.75;fill-rule:evenodd;stroke:#000000;stroke-width:1px;stroke-linecap:butt;stroke-linejoin:miter;stroke-opacity:1" id="path6623"/>
  <path d="M 397.60536,72.517858 L 423.15655,72.517858" style="fill:none;fill-opacity:0.75;fill-rule:evenodd;stroke:#000000;stroke-width:1.13231564px;stroke-linecap:butt;stroke-linejoin:miter;stroke-opacity:1" id="path6625"/>
  <path d="M 397.49964,103.33333 L 443.53301,103.33333" style="fill:none;fill-opacity:0.75;fill-rule:evenodd;stroke:#000000;stroke-width:1.03474247px;stroke-linecap:butt;stroke-linejoin:miter;stroke-opacity:1" id="path6627"/>
  <path d="M 418.49998,40.183889 L 405.87364,44.200726 L 405.87364,36.167053 L 418.49998,40.183889 z " style="fill:#000000;fill-opacity:1;stroke:none;stroke-width:1;stroke-linecap:round;stroke-linejoin:round;stroke-miterlimit:4;stroke-dasharray:none;stroke-opacity:1" id="path6634"/>
  <path d="M 435.66068,72.475557 L 423.03434,76.492394 L 423.03434,68.458721 L 435.66068,72.475557 z " style="fill:#000000;fill-opacity:1;stroke:none;stroke-width:1;stroke-linecap:round;stroke-linejoin:round;stroke-miterlimit:4;stroke-dasharray:none;stroke-opacity:1" id="path6636"/>
  <path d="M 453.74398,103.47556 L 441.11764,107.49239 L 441.11764,99.458721 L 453.74398,103.47556 z " style="fill:#000000;fill-opacity:1;stroke:none;stroke-width:1;stroke-linecap:round;stroke-linejoin:round;stroke-miterlimit:4;stroke-dasharray:none;stroke-opacity:1" id="path6638"/>
  <path d="M 125.27518,376.45701 L 125.27518,137.61602 L 136.32018,137.61602" style="fill:none;fill-opacity:0.75;fill-rule:evenodd;stroke:#000000;stroke-width:1.03251314px;stroke-linecap:butt;stroke-linejoin:miter;stroke-opacity:1" id="path6693"/>
  <path d="M 125.51987,239.37263 L 188.67124,239.37263" style="fill:none;fill-opacity:0.75;fill-rule:evenodd;stroke:#000000;stroke-width:1px;stroke-linecap:butt;stroke-linejoin:miter;stroke-opacity:1" id="path6695"/>
  <path d="M 147.98808,137.79698 L 135.36174,141.81381 L 135.36174,133.78014 L 147.98808,137.79698 z " style="fill:#000000;fill-opacity:1;stroke:none;stroke-width:1;stroke-linecap:round;stroke-linejoin:round;stroke-miterlimit:4;stroke-dasharray:none;stroke-opacity:1" id="path6711"/>
  <path d="M 199.83928,239.46958 L 187.21294,243.48641 L 187.21294,235.45274 L 199.83928,239.46958 z " style="fill:#000000;fill-opacity:1;stroke:none;stroke-width:1;stroke-linecap:round;stroke-linejoin:round;stroke-miterlimit:4;stroke-dasharray:none;stroke-opacity:1" id="path6750"/>
  <g transform="translate(-0.4282234,0)" id="g8562">
    <path d="M 199.47024,150.75595 L 199.47024,205.375 L 339.70833,205.375" style="fill:none;fill-opacity:0.75;fill-rule:evenodd;stroke:#000000;stroke-width:1px;stroke-linecap:butt;stroke-linejoin:miter;stroke-opacity:1" id="path8550"/>
    <path d="M 214.41667,205.375 L 214.41667,216.2619" style="fill:none;fill-opacity:0.75;fill-rule:evenodd;stroke:#000000;stroke-width:1px;stroke-linecap:butt;stroke-linejoin:miter;stroke-opacity:1" id="path8552"/>
    <path d="M 199.47024,169.39286 L 219.05805,169.39286" style="fill:none;fill-opacity:0.75;fill-rule:evenodd;stroke:#000000;stroke-width:1px;stroke-linecap:butt;stroke-linejoin:miter;stroke-opacity:1" id="path8554"/>
    <path d="M -57.677552,101.11905 L -77.606123,112.62482 L -77.606123,89.613283 L -57.677552,101.11905 z " transform="matrix(0.63358,0,0,0.349115,268.2255,134.2329)" style="fill:#000000;fill-opacity:1;stroke:none;stroke-width:1;stroke-linecap:round;stroke-linejoin:round;stroke-miterlimit:4;stroke-dasharray:none;stroke-opacity:1" id="path8556"/>
    <path d="M -56.095237,101.11905 L -76.023808,112.62482 L -76.023808,89.613283 L -56.095237,101.11905 z " transform="matrix(0.63358,0,0,0.349115,387.2433,170.215)" style="fill:#000000;fill-opacity:1;stroke:none;stroke-width:1;stroke-linecap:round;stroke-linejoin:round;stroke-miterlimit:4;stroke-dasharray:none;stroke-opacity:1" id="path8558"/>
    <path d="M -56.095237,101.11905 L -76.023808,112.62482 L -76.023808,89.613283 L -56.095237,101.11905 z " transform="matrix(0,0.63358,-0.349115,0,249.8642,262.8714)" style="fill:#000000;fill-opacity:1;stroke:none;stroke-width:1;stroke-linecap:round;stroke-linejoin:round;stroke-miterlimit:4;stroke-dasharray:none;stroke-opacity:1" id="path8560"/>
  </g>
  <path d="M 609.47583,201.68451 L 605.82332,200.47186 L 608.69977,197.91502 L 609.47583,201.68451 z " style="fill:#000000;fill-opacity:1;stroke:none;stroke-width:1;stroke-linecap:round;stroke-linejoin:round;stroke-miterlimit:4;stroke-dasharray:4, 8;stroke-dashoffset:0;stroke-opacity:1" id="path9499"/>
  <path d="M 453.55952,208.32738 L 487.32738,208.32738 L 487.32738,197.625 L 622.39881,197.625" style="fill:none;fill-opacity:0.75;fill-rule:evenodd;stroke:#000000;stroke-width:1px;stroke-linecap:butt;stroke-linejoin:miter;stroke-opacity:1" id="path8583"/>
  <path d="M 487.325,207.97423 L 487.325,219.567 L 511.12151,219.567" style="fill:none;fill-opacity:0.75;fill-rule:evenodd;stroke:#000000;stroke-width:1;stroke-linecap:butt;stroke-linejoin:miter;stroke-miterlimit:4;stroke-dasharray:none;stroke-opacity:1" id="path8585"/>
  <path d="M 520.62634,219.58328 L 508,223.60011 L 508,215.56644 L 520.62634,219.58328 z " style="fill:#000000;fill-opacity:1;stroke:none;stroke-width:1;stroke-linecap:round;stroke-linejoin:round;stroke-miterlimit:4;stroke-dasharray:none;stroke-opacity:1" id="path8587"/>
  <path d="M 633.32508,197.62498 L 620.69874,201.64181 L 620.69874,193.60814 L 633.32508,197.62498 z " style="fill:#000000;fill-opacity:1;stroke:none;stroke-width:1;stroke-linecap:round;stroke-linejoin:round;stroke-miterlimit:4;stroke-dasharray:none;stroke-opacity:1" id="path8590"/>
  <path d="M 559.80815,207.22024 L 562.57601,200.39286" style="fill:none;fill-opacity:0.75;fill-rule:evenodd;stroke:#000000;stroke-width:1px;stroke-linecap:butt;stroke-linejoin:miter;stroke-opacity:1" id="path8592"/>
  <path d="M 564.42128,201.68451 L 560.76877,200.47186 L 563.64522,197.91502 L 564.42128,201.68451 z " style="fill:#000000;fill-opacity:1;stroke:none;stroke-width:1;stroke-linecap:round;stroke-linejoin:round;stroke-miterlimit:4;stroke-dasharray:4, 8;stroke-dashoffset:0;stroke-opacity:1" id="path8594"/>
  <path d="M 568.8191,207.22024 L 571.58695,200.39286" style="fill:none;fill-opacity:0.75;fill-rule:evenodd;stroke:#000000;stroke-width:1px;stroke-linecap:butt;stroke-linejoin:miter;stroke-opacity:1" id="path9481"/>
  <path d="M 573.43224,201.68451 L 569.77973,200.47186 L 572.65618,197.91502 L 573.43224,201.68451 z " style="fill:#000000;fill-opacity:1;stroke:none;stroke-width:1;stroke-linecap:round;stroke-linejoin:round;stroke-miterlimit:4;stroke-dasharray:4, 8;stroke-dashoffset:0;stroke-opacity:1" id="path9483"/>
  <path d="M 577.82998,207.22024 L 580.59783,200.39286" style="fill:none;fill-opacity:0.75;fill-rule:evenodd;stroke:#000000;stroke-width:1px;stroke-linecap:butt;stroke-linejoin:miter;stroke-opacity:1" id="path9485"/>
  <path d="M 582.44309,201.68451 L 578.79058,200.47186 L 581.66703,197.91502 L 582.44309,201.68451 z " style="fill:#000000;fill-opacity:1;stroke:none;stroke-width:1;stroke-linecap:round;stroke-linejoin:round;stroke-miterlimit:4;stroke-dasharray:4, 8;stroke-dashoffset:0;stroke-opacity:1" id="path9487"/>
  <path d="M 586.84087,207.22024 L 589.60872,200.39286" style="fill:none;fill-opacity:0.75;fill-rule:evenodd;stroke:#000000;stroke-width:1px;stroke-linecap:butt;stroke-linejoin:miter;stroke-opacity:1" id="path9489"/>
  <path d="M 591.45401,201.68451 L 587.8015,200.47186 L 590.67795,197.91502 L 591.45401,201.68451 z " style="fill:#000000;fill-opacity:1;stroke:none;stroke-width:1;stroke-linecap:round;stroke-linejoin:round;stroke-miterlimit:4;stroke-dasharray:4, 8;stroke-dashoffset:0;stroke-opacity:1" id="path9491"/>
  <path d="M 595.8518,207.22024 L 598.61965,200.39286" style="fill:none;fill-opacity:0.75;fill-rule:evenodd;stroke:#000000;stroke-width:1px;stroke-linecap:butt;stroke-linejoin:miter;stroke-opacity:1" id="path9493"/>
  <path d="M 600.46491,201.68451 L 596.8124,200.47186 L 599.68885,197.91502 L 600.46491,201.68451 z " style="fill:#000000;fill-opacity:1;stroke:none;stroke-width:1;stroke-linecap:round;stroke-linejoin:round;stroke-miterlimit:4;stroke-dasharray:4, 8;stroke-dashoffset:0;stroke-opacity:1" id="path9495"/>
  <path d="M 604.86269,207.22024 L 607.63054,200.39286" style="fill:none;fill-opacity:0.75;fill-rule:evenodd;stroke:#000000;stroke-width:1px;stroke-linecap:butt;stroke-linejoin:miter;stroke-opacity:1" id="path9497"/>
  <path d="M 613.87363,207.22024 L 616.64148,200.39286" style="fill:none;fill-opacity:0.75;fill-rule:evenodd;stroke:#000000;stroke-width:1px;stroke-linecap:butt;stroke-linejoin:miter;stroke-opacity:1" id="path9501"/>
  <path d="M 618.48674,201.68451 L 614.83423,200.47186 L 617.71068,197.91502 L 618.48674,201.68451 z " style="fill:#000000;fill-opacity:1;stroke:none;stroke-width:1;stroke-linecap:round;stroke-linejoin:round;stroke-miterlimit:4;stroke-dasharray:4, 8;stroke-dashoffset:0;stroke-opacity:1" id="path9503"/>
  <path d="M 363.59161,297.79108 L 363.59161,316.44549 L 374.13777,316.44549" style="fill:none;fill-opacity:0.75;fill-rule:evenodd;stroke:#000000;stroke-width:1;stroke-linecap:butt;stroke-linejoin:miter;stroke-opacity:1;stroke-miterlimit:4;stroke-dasharray:none" id="path9531"/>
  <text x="153.5238" y="140.96532" style="font-size:14px;font-family:Bitstream Vera Sans" id="text6340" xml:space="preserve"><tspan x="153.5238" y="140.96532" style="font-size:12px" id="tspan6342">BSD (Berkeley Software Distribution)</tspan></text>
  <text x="425.5119" y="44.778877" style="font-size:14px;font-family:Bitstream Vera Sans" id="text6344" xml:space="preserve"><tspan x="425.5119" y="44.778877" style="font-size:12px" id="tspan6346">FreeBSD</tspan></text>
  <text x="441.53571" y="76.886017" style="font-size:14px;font-family:Bitstream Vera Sans" id="text6348" xml:space="preserve"><tspan x="441.53571" y="76.886017" style="font-size:12px" id="tspan6350">NetBSD</tspan></text>
  <text x="458.88095" y="107.46104" style="font-size:14px;font-family:Bitstream Vera Sans" id="text6352" xml:space="preserve"><tspan x="458.88095" y="107.46104" style="font-size:12px" id="tspan6354">OpenBSD</tspan></text>
  <path d="M 316.0625,163.96875 C 315.32422,163.96876 314.77733,164.16407 314.4375,164.5 C 314.09765,164.83204 313.93748,165.36329 313.9375,166.09375 L 313.9375,166.53125 L 312.90625,166.53125 L 312.90625,167.375 L 313.9375,167.375 L 313.9375,173.09375 L 315.03125,173.09375 L 315.03125,167.375 L 316.8125,167.375 L 316.8125,166.53125 L 315.03125,166.53125 L 315.03125,165.96875 C 315.03125,165.56251 315.10154,165.28126 315.25,165.125 C 315.40234,164.96876 315.67576,164.87501 316.0625,164.875 L 317.09375,164.875 L 317.09375,163.96875 L 316.0625,163.96875 z M 334.375,163.96875 L 334.375,167.53125 C 334.14843,167.14063 333.84764,166.84376 333.5,166.65625 C 333.15625,166.46485 332.76561,166.37501 332.28125,166.375 C 331.48828,166.37501 330.84373,166.67969 330.34375,167.3125 C 329.84766,167.94532 329.59373,168.78125 329.59375,169.8125 C 329.59375,170.84375 329.84764,171.67969 330.34375,172.3125 C 330.84375,172.94531 331.48826,173.28125 332.28125,173.28125 C 332.76562,173.28125 333.15623,173.1875 333.5,173 C 333.84765,172.80859 334.14842,172.51563 334.375,172.125 L 334.375,173.09375 L 335.4375,173.09375 L 335.4375,163.96875 L 334.375,163.96875 z M 283.4375,164 C 282.84765,164.92188 282.3828,165.80469 282.09375,166.6875 C 281.80469,167.57032 281.68748,168.47266 281.6875,169.34375 C 281.6875,170.21875 281.80467,171.08203 282.09375,171.96875 C 282.38672,172.85547 282.85155,173.76953 283.4375,174.6875 L 284.375,174.6875 C 283.85547,173.79297 283.44529,172.88281 283.1875,172 C 282.93359,171.11328 282.81248,170.2461 282.8125,169.34375 C 282.8125,168.44141 282.93358,167.53516 283.1875,166.65625 C 283.4414,165.77735 283.85154,164.89845 284.375,164 L 283.4375,164 z M 337.90625,164 L 337.90625,164.0625 C 338.40775,164.93971 338.7832,165.79769 339.03125,166.65625 C 339.28906,167.53516 339.43748,168.44141 339.4375,169.34375 C 339.4375,170.2461 339.28904,171.11328 339.03125,172 C 338.78322,172.86238 338.40773,173.75144 337.90625,174.625 L 337.90625,174.6875 L 338.8125,174.6875 C 339.39844,173.76953 339.83592,172.85547 340.125,171.96875 C 340.41797,171.08203 340.56248,170.21875 340.5625,169.34375 C 340.5625,168.47266 340.41795,167.57032 340.125,166.6875 C 339.83593,165.80469 339.39842,164.92188 338.8125,164 L 337.90625,164 z M 240.78125,164.1875 C 239.82422,164.18751 239.04687,164.4297 238.5,164.875 C 237.95703,165.32032 237.6875,165.91407 237.6875,166.6875 C 237.6875,167.35547 237.88672,167.87501 238.28125,168.25 C 238.67578,168.625 239.33594,168.91797 240.21875,169.09375 L 240.9375,169.21875 C 241.53906,169.33985 241.95703,169.50782 242.21875,169.75 C 242.48437,169.99219 242.62499,170.35157 242.625,170.78125 C 242.62499,171.27344 242.42968,171.64063 242.0625,171.90625 C 241.69531,172.17188 241.17578,172.3125 240.5,172.3125 C 240.05468,172.3125 239.61718,172.23047 239.15625,172.09375 C 238.69531,171.95703 238.19922,171.76953 237.71875,171.5 L 237.71875,172.71875 C 238.21875,172.90234 238.72265,173.03125 239.1875,173.125 C 239.65625,173.21875 240.08593,173.28125 240.5,173.28125 C 241.59765,173.28125 242.43359,173.0625 243,172.625 C 243.57031,172.1875 243.84374,171.53516 243.84375,170.6875 C 243.84374,169.97657 243.64062,169.42188 243.21875,169 C 242.80078,168.57422 242.16406,168.26172 241.28125,168.09375 L 240.5625,167.9375 C 239.91406,167.81641 239.45312,167.66407 239.21875,167.46875 C 238.98828,167.26954 238.875,166.98047 238.875,166.59375 C 238.875,166.13282 239.05859,165.78126 239.40625,165.53125 C 239.75781,165.28126 240.26172,165.15626 240.90625,165.15625 C 241.27734,165.15626 241.66406,165.20704 242.0625,165.3125 C 242.46093,165.41798 242.89453,165.56641 243.34375,165.78125 L 243.34375,164.625 C 242.89843,164.47657 242.45703,164.38673 242.03125,164.3125 C 241.60546,164.23829 241.1914,164.18751 240.78125,164.1875 z M 264.5,164.1875 C 263.26953,164.18751 262.26951,164.61329 261.53125,165.4375 C 260.79687,166.25782 260.43748,167.33594 260.4375,168.71875 C 260.4375,170.10157 260.79686,171.21094 261.53125,172.03125 C 262.26953,172.85156 263.26951,173.28125 264.5,173.28125 C 265.72656,173.28125 266.7031,172.85156 267.4375,172.03125 C 268.17187,171.20703 268.53123,170.09766 268.53125,168.71875 C 268.53124,167.33594 268.17185,166.25782 267.4375,165.4375 C 266.70312,164.61329 265.72654,164.18751 264.5,164.1875 z M 273.0625,164.1875 C 272.10547,164.18751 271.35936,164.4297 270.8125,164.875 C 270.26953,165.32032 269.99998,165.91407 270,166.6875 C 270,167.35547 270.1992,167.87501 270.59375,168.25 C 270.98828,168.625 271.61717,168.91797 272.5,169.09375 L 273.21875,169.21875 C 273.82031,169.33985 274.26951,169.50782 274.53125,169.75 C 274.79687,169.99219 274.90623,170.35157 274.90625,170.78125 C 274.90624,171.27344 274.74217,171.64063 274.375,171.90625 C 274.00781,172.17188 273.48826,172.3125 272.8125,172.3125 C 272.36718,172.3125 271.89842,172.23047 271.4375,172.09375 C 270.97656,171.95703 270.5117,171.76953 270.03125,171.5 L 270.03125,172.71875 C 270.53125,172.90234 271.00389,173.03125 271.46875,173.125 C 271.9375,173.21875 272.39842,173.28125 272.8125,173.28125 C 273.91015,173.28125 274.74607,173.0625 275.3125,172.625 C 275.88281,172.1875 276.15623,171.53516 276.15625,170.6875 C 276.15624,169.97657 275.9531,169.42188 275.53125,169 C 275.11328,168.57422 274.44529,168.26172 273.5625,168.09375 L 272.84375,167.9375 C 272.19531,167.81641 271.76561,167.66407 271.53125,167.46875 C 271.30078,167.26954 271.18748,166.98047 271.1875,166.59375 C 271.1875,166.13282 271.37108,165.78126 271.71875,165.53125 C 272.07031,165.28126 272.54295,165.15626 273.1875,165.15625 C 273.55859,165.15626 273.94529,165.20704 274.34375,165.3125 C 274.74218,165.41798 275.17576,165.56641 275.625,165.78125 L 275.625,164.625 C 275.17968,164.47657 274.73826,164.38673 274.3125,164.3125 C 273.88671,164.23829 273.47264,164.18751 273.0625,164.1875 z M 289.1875,164.1875 C 288.23047,164.18751 287.48436,164.4297 286.9375,164.875 C 286.39453,165.32032 286.12498,165.91407 286.125,166.6875 C 286.125,167.35547 286.3242,167.87501 286.71875,168.25 C 287.11328,168.625 287.74217,168.91797 288.625,169.09375 L 289.34375,169.21875 C 289.94531,169.33985 290.39451,169.50782 290.65625,169.75 C 290.92187,169.99219 291.03123,170.35157 291.03125,170.78125 C 291.03124,171.27344 290.86717,171.64063 290.5,171.90625 C 290.13281,172.17188 289.61326,172.3125 288.9375,172.3125 C 288.49218,172.3125 288.02342,172.23047 287.5625,172.09375 C 287.10156,171.95703 286.6367,171.76953 286.15625,171.5 L 286.15625,172.71875 C 286.65625,172.90234 287.12889,173.03125 287.59375,173.125 C 288.0625,173.21875 288.52342,173.28125 288.9375,173.28125 C 290.03515,173.28125 290.87107,173.0625 291.4375,172.625 C 292.00781,172.1875 292.28123,171.53516 292.28125,170.6875 C 292.28124,169.97657 292.0781,169.42188 291.65625,169 C 291.23828,168.57422 290.57029,168.26172 289.6875,168.09375 L 288.96875,167.9375 C 288.32031,167.81641 287.89061,167.66407 287.65625,167.46875 C 287.42578,167.26954 287.31248,166.98047 287.3125,166.59375 C 287.3125,166.13282 287.49608,165.78126 287.84375,165.53125 C 288.19531,165.28126 288.66795,165.15626 289.3125,165.15625 C 289.68359,165.15626 290.07029,165.20704 290.46875,165.3125 C 290.86718,165.41798 291.30076,165.56641 291.75,165.78125 L 291.75,164.625 C 291.30468,164.47657 290.86326,164.38673 290.4375,164.3125 C 290.01171,164.23829 289.59764,164.18751 289.1875,164.1875 z M 294.0625,164.6875 L 294.0625,166.53125 L 293.28125,166.53125 L 293.28125,167.375 L 294.0625,167.375 L 294.0625,170.9375 C 294.0625,171.75781 294.21483,172.3125 294.53125,172.625 C 294.84765,172.93359 295.41795,173.09375 296.25,173.09375 L 297.375,173.09375 L 297.375,172.1875 L 296.25,172.1875 C 295.80078,172.1875 295.52342,172.12109 295.375,171.96875 C 295.23047,171.81641 295.15623,171.47266 295.15625,170.9375 L 295.15625,167.375 L 297.375,167.375 L 297.375,166.53125 L 295.15625,166.53125 L 295.15625,164.6875 L 294.0625,164.6875 z M 264.5,165.15625 C 265.35937,165.15626 266.03123,165.48438 266.53125,166.125 C 267.03515,166.76563 267.28123,167.61329 267.28125,168.71875 C 267.28124,169.82032 267.03513,170.70313 266.53125,171.34375 C 266.03124,171.98438 265.35935,172.3125 264.5,172.3125 C 263.64062,172.3125 262.94529,171.98438 262.4375,171.34375 C 261.93359,170.70313 261.68748,169.82032 261.6875,168.71875 C 261.6875,167.61329 261.93358,166.76563 262.4375,166.125 C 262.94531,165.48438 263.64061,165.15626 264.5,165.15625 z M 256.4375,166.375 C 255.98046,166.37501 255.57031,166.46094 255.21875,166.65625 C 254.87109,166.85157 254.57031,167.16797 254.3125,167.5625 L 254.3125,166.53125 L 253.21875,166.53125 L 253.21875,173.09375 L 254.3125,173.09375 L 254.3125,169.375 C 254.3125,168.73438 254.47656,168.2461 254.8125,167.875 C 255.14843,167.50391 255.60547,167.31251 256.1875,167.3125 C 256.67187,167.31251 257.03906,167.47266 257.28125,167.78125 C 257.52343,168.08985 257.65624,168.56641 257.65625,169.1875 L 257.65625,173.09375 L 258.71875,173.09375 L 258.71875,169.125 C 258.71874,168.21875 258.54296,167.5586 258.15625,167.09375 C 257.76953,166.62501 257.1914,166.37501 256.4375,166.375 z M 301.09375,166.375 C 300.74218,166.37501 300.37108,166.42188 300,166.5 C 299.6289,166.57423 299.23826,166.69141 298.84375,166.84375 L 298.84375,167.84375 C 299.17187,167.66407 299.51951,167.52735 299.875,167.4375 C 300.23047,167.34766 300.59373,167.28126 300.96875,167.28125 C 301.55859,167.28126 302.01951,167.41407 302.34375,167.6875 C 302.67187,167.95704 302.84373,168.34766 302.84375,168.84375 L 302.84375,168.96875 L 301.34375,168.96875 C 300.36328,168.96875 299.62108,169.15625 299.125,169.53125 C 298.63281,169.90625 298.37498,170.44922 298.375,171.1875 C 298.375,171.82031 298.5742,172.33984 298.96875,172.71875 C 299.36719,173.09375 299.89061,173.28125 300.5625,173.28125 C 301.09375,173.28125 301.57029,173.1875 301.9375,173 C 302.30468,172.80859 302.59764,172.49219 302.84375,172.09375 L 302.84375,173.09375 L 303.90625,173.09375 L 303.90625,169.34375 C 303.90624,168.34375 303.68748,167.61719 303.21875,167.125 C 302.74999,166.63282 302.04295,166.37501 301.09375,166.375 z M 309.3125,166.375 C 308.85546,166.37501 308.44529,166.46094 308.09375,166.65625 C 307.74609,166.85157 307.44529,167.16797 307.1875,167.5625 L 307.1875,166.53125 L 306.09375,166.53125 L 306.09375,173.09375 L 307.1875,173.09375 L 307.1875,169.375 C 307.1875,168.73438 307.35154,168.2461 307.6875,167.875 C 308.02343,167.50391 308.48045,167.31251 309.0625,167.3125 C 309.54687,167.31251 309.91404,167.47266 310.15625,167.78125 C 310.39843,168.08985 310.53123,168.56641 310.53125,169.1875 L 310.53125,173.09375 L 311.59375,173.09375 L 311.59375,169.125 C 311.59374,168.21875 311.41795,167.5586 311.03125,167.09375 C 310.64453,166.62501 310.06639,166.37501 309.3125,166.375 z M 320.53125,166.375 C 319.58984,166.37501 318.84764,166.67188 318.3125,167.28125 C 317.78125,167.89063 317.49998,168.73438 317.5,169.8125 C 317.5,170.88672 317.78123,171.73047 318.3125,172.34375 C 318.84765,172.95313 319.58983,173.28125 320.53125,173.28125 C 321.46875,173.28125 322.21482,172.95313 322.75,172.34375 C 323.28515,171.73047 323.53123,170.88672 323.53125,169.8125 C 323.53124,168.73438 323.28513,167.89063 322.75,167.28125 C 322.21484,166.67188 321.46873,166.37501 320.53125,166.375 z M 328.5625,166.375 C 328.04296,166.37501 327.61326,166.46094 327.25,166.65625 C 326.88672,166.84766 326.60154,167.16407 326.375,167.5625 L 326.375,166.53125 L 325.28125,166.53125 L 325.28125,173.09375 L 326.375,173.09375 L 326.375,169.65625 C 326.375,168.91407 326.51951,168.33204 326.84375,167.9375 C 327.17187,167.53907 327.64061,167.34376 328.25,167.34375 C 328.42187,167.34376 328.57811,167.3711 328.71875,167.40625 C 328.86328,167.43751 329.00389,167.46094 329.125,167.53125 L 329.125,166.4375 C 329.01562,166.41798 328.90232,166.41407 328.8125,166.40625 C 328.72265,166.39454 328.6367,166.37501 328.5625,166.375 z M 245.53125,166.53125 L 245.53125,170.5 C 245.53125,171.40235 245.73437,172.09375 246.125,172.5625 C 246.51562,173.03125 247.08984,173.28125 247.84375,173.28125 C 248.30078,173.28125 248.71875,173.16016 249.0625,172.96875 C 249.41015,172.77344 249.70703,172.49219 249.96875,172.09375 L 249.96875,173.09375 L 251.03125,173.09375 L 251.03125,166.53125 L 249.96875,166.53125 L 249.96875,170.25 C 249.96874,170.89063 249.77734,171.41016 249.4375,171.78125 C 249.10156,172.15234 248.64453,172.34375 248.0625,172.34375 C 247.57812,172.34375 247.24218,172.18359 247,171.875 C 246.75781,171.5625 246.625,171.08985 246.625,170.46875 L 246.625,166.53125 L 245.53125,166.53125 z M 320.53125,167.28125 C 321.10546,167.28126 321.57029,167.51172 321.90625,167.96875 C 322.24218,168.42188 322.40623,169.03516 322.40625,169.8125 C 322.40624,170.59375 322.24217,171.23438 321.90625,171.6875 C 321.57031,172.14063 321.10545,172.34375 320.53125,172.34375 C 319.94922,172.34375 319.49217,172.13672 319.15625,171.6875 C 318.82422,171.23438 318.65623,170.59766 318.65625,169.8125 C 318.65625,169.02735 318.8203,168.41797 319.15625,167.96875 C 319.49218,167.51563 319.95311,167.28126 320.53125,167.28125 z M 332.53125,167.28125 C 333.10156,167.28126 333.54686,167.51563 333.875,167.96875 C 334.20312,168.41797 334.37498,169.01954 334.375,169.8125 C 334.37499,170.60547 334.2031,171.23438 333.875,171.6875 C 333.54687,172.13672 333.10154,172.375 332.53125,172.375 C 331.96093,172.375 331.51561,172.13672 331.1875,171.6875 C 330.86328,171.23438 330.68748,170.60547 330.6875,169.8125 C 330.6875,169.01954 330.86326,168.41797 331.1875,167.96875 C 331.51562,167.51563 331.96092,167.28126 332.53125,167.28125 z M 301.78125,169.8125 L 302.84375,169.8125 L 302.84375,170.03125 C 302.84374,170.73438 302.67576,171.29297 302.3125,171.71875 C 301.95312,172.14063 301.47264,172.375 300.875,172.375 C 300.4414,172.375 300.09764,172.25391 299.84375,172.03125 C 299.59375,171.80469 299.46873,171.50781 299.46875,171.125 C 299.46875,170.64453 299.6328,170.29297 299.96875,170.09375 C 300.30468,169.89453 300.91014,169.8125 301.78125,169.8125 z " style="font-size:12px;font-style:normal;font-variant:normal;font-weight:normal;font-stretch:normal;text-align:start;line-height:125%;writing-mode:lr-tb;text-anchor:start;font-family:Bitstream Vera Sans" id="text6356"/>
  <text x="408.53571" y="173.25697" style="font-size:14px;font-family:Bitstream Vera Sans" id="text6360" xml:space="preserve"><tspan x="408.53571" y="173.25697" style="font-size:12px" id="tspan6362">Solaris (SUN)</tspan></text>
  <text x="356.13095" y="211.16341" style="font-size:14px;font-family:Bitstream Vera Sans" id="text6364" xml:space="preserve"><tspan x="356.13095" y="211.16341" style="font-size:12px" id="tspan6366">NextStep</tspan></text>
  <path style="font-size:14px;font-family:Bitstream Vera Sans" d="M 603.03125 215.0625 C 602.05078 215.06251 601.30078 215.44142 600.78125 216.21875 C 600.26563 216.9922 600.03125 218.1172 600.03125 219.59375 C 600.03125 221.06641 600.26563 222.19141 600.78125 222.96875 C 601.30078 223.74219 602.05078 224.125 603.03125 224.125 C 604.01172 224.125 604.76562 223.74219 605.28125 222.96875 C 605.80078 222.19141 606.06249 221.06641 606.0625 219.59375 C 606.06249 218.1172 605.80078 216.9922 605.28125 216.21875 C 604.76562 215.44142 604.01172 215.06251 603.03125 215.0625 z M 626.625 215.0625 C 625.51953 215.06251 624.625 215.45704 623.96875 216.28125 C 623.3125 217.10157 623 218.21095 623 219.59375 C 623 221.06641 623.24609 222.19141 623.78125 222.96875 C 624.3164 223.74219 625.11328 224.125 626.125 224.125 C 627.00781 224.125 627.71875 223.85547 628.25 223.3125 C 628.78124 222.76953 629.03124 222.05469 629.03125 221.15625 C 629.03124 220.23828 628.76171 219.5 628.25 218.96875 C 627.74218 218.4336 627.06641 218.1875 626.1875 218.1875 C 625.76953 218.1875 625.3789 218.25391 625.03125 218.4375 C 624.68359 218.61719 624.38672 218.87891 624.15625 219.21875 C 624.21484 218.15235 624.46485 217.3711 624.875 216.84375 C 625.28906 216.31641 625.875 216.03126 626.65625 216.03125 C 626.95312 216.03126 627.26171 216.08204 627.5625 216.15625 C 627.86718 216.23048 628.17187 216.32813 628.46875 216.46875 L 628.46875 215.40625 C 628.14062 215.28907 627.80468 215.1836 627.5 215.125 C 627.19922 215.06641 626.92187 215.06251 626.625 215.0625 z M 559.28125 215.21875 C 558.05078 215.21876 557.05078 215.64454 556.3125 216.46875 C 555.57812 217.28907 555.21875 218.39844 555.21875 219.78125 C 555.21875 221.16407 555.57812 222.24219 556.3125 223.0625 C 557.05078 223.88281 558.05078 224.3125 559.28125 224.3125 C 560.50781 224.3125 561.48437 223.88281 562.21875 223.0625 C 562.95312 222.23828 563.31249 221.16016 563.3125 219.78125 C 563.31249 218.39844 562.95312 217.28907 562.21875 216.46875 C 561.48437 215.64454 560.50781 215.21876 559.28125 215.21875 z M 567.84375 215.21875 C 566.88672 215.21876 566.14062 215.46095 565.59375 215.90625 C 565.05078 216.35157 564.78125 216.94532 564.78125 217.71875 C 564.78125 218.38672 564.98047 218.90626 565.375 219.28125 C 565.76953 219.65625 566.39844 219.94922 567.28125 220.125 L 568 220.25 C 568.60156 220.3711 569.05078 220.57032 569.3125 220.8125 C 569.57812 221.05469 569.68749 221.38282 569.6875 221.8125 C 569.68749 222.30469 569.52343 222.67188 569.15625 222.9375 C 568.78906 223.20313 568.26953 223.34375 567.59375 223.34375 C 567.14843 223.34375 566.67968 223.26172 566.21875 223.125 C 565.75781 222.98828 565.29297 222.80078 564.8125 222.53125 L 564.8125 223.75 C 565.3125 223.93359 565.78515 224.0625 566.25 224.15625 C 566.71875 224.25 567.17968 224.3125 567.59375 224.3125 C 568.6914 224.3125 569.52734 224.09375 570.09375 223.65625 C 570.66406 223.21875 570.93749 222.56641 570.9375 221.71875 C 570.93749 221.00782 570.73437 220.45313 570.3125 220.03125 C 569.89453 219.60547 569.22656 219.29297 568.34375 219.125 L 567.625 219 C 566.97656 218.87891 566.54687 218.69532 566.3125 218.5 C 566.08203 218.30079 565.96875 218.01172 565.96875 217.625 C 565.96875 217.16407 566.15234 216.81251 566.5 216.5625 C 566.85156 216.31251 567.32422 216.18751 567.96875 216.1875 C 568.33984 216.18751 568.72656 216.23829 569.125 216.34375 C 569.52343 216.44923 569.95703 216.62891 570.40625 216.84375 L 570.40625 215.6875 C 569.96093 215.53907 569.51953 215.41798 569.09375 215.34375 C 568.66796 215.26954 568.2539 215.21876 567.84375 215.21875 z M 595 215.21875 L 592.90625 215.625 L 592.90625 216.71875 L 595 216.28125 L 595 222.96875 L 593.0625 222.96875 L 593.0625 223.96875 L 598.125 223.96875 L 598.125 222.96875 L 596.1875 222.96875 L 596.1875 215.21875 L 595 215.21875 z M 614.90625 215.21875 L 611.28125 220.75 L 611.28125 221.90625 L 615.21875 221.90625 L 615.21875 223.96875 L 616.40625 223.96875 L 616.40625 221.90625 L 617.65625 221.90625 L 617.65625 220.90625 L 616.40625 220.90625 L 616.40625 215.21875 L 614.90625 215.21875 z M 527.40625 215.375 L 527.40625 224.125 L 528.53125 224.125 L 528.53125 216.46875 L 530.78125 222.46875 L 532 222.46875 L 534.25 216.46875 L 534.25 224.125 L 535.40625 224.125 L 535.40625 215.375 L 533.625 215.375 L 531.375 221.34375 L 529.15625 215.375 L 527.40625 215.375 z M 603.03125 216 C 603.64453 216.00001 604.1328 216.27345 604.4375 216.875 C 604.74608 217.47266 604.87499 218.39063 604.875 219.59375 C 604.87499 220.79298 604.74608 221.67969 604.4375 222.28125 C 604.1328 222.8789 603.64453 223.1875 603.03125 223.1875 C 602.42187 223.1875 601.96484 222.8789 601.65625 222.28125 C 601.35156 221.67969 601.21875 220.79298 601.21875 219.59375 C 601.21875 218.39063 601.35156 217.47266 601.65625 216.875 C 601.96484 216.27345 602.42187 216.00001 603.03125 216 z M 559.28125 216.1875 C 560.14062 216.18751 560.81249 216.51563 561.3125 217.15625 C 561.8164 217.79688 562.06249 218.67579 562.0625 219.78125 C 562.06249 220.88282 561.8164 221.73438 561.3125 222.375 C 560.81249 223.01563 560.14062 223.34375 559.28125 223.34375 C 558.42187 223.34375 557.72656 223.01563 557.21875 222.375 C 556.71484 221.73438 556.46875 220.88282 556.46875 219.78125 C 556.46875 218.67579 556.71484 217.79688 557.21875 217.15625 C 557.72656 216.51563 558.42187 216.18751 559.28125 216.1875 z M 615.21875 216.25 L 615.21875 220.90625 L 612.25 220.90625 L 615.21875 216.25 z M 540 217.40625 C 539.64843 217.40626 539.30859 217.45313 538.9375 217.53125 C 538.5664 217.60548 538.17578 217.72266 537.78125 217.875 L 537.78125 218.875 C 538.10937 218.69532 538.45703 218.5586 538.8125 218.46875 C 539.16797 218.37891 539.53125 218.34376 539.90625 218.34375 C 540.49609 218.34376 540.95703 218.47657 541.28125 218.75 C 541.60937 219.01954 541.74999 219.37891 541.75 219.875 L 541.75 220 L 540.25 220 C 539.26953 220 538.52734 220.1875 538.03125 220.5625 C 537.53906 220.9375 537.28125 221.48047 537.28125 222.21875 C 537.28125 222.85156 537.48047 223.37109 537.875 223.75 C 538.27344 224.125 538.82812 224.3125 539.5 224.3125 C 540.03125 224.3125 540.47656 224.21875 540.84375 224.03125 C 541.21093 223.83984 541.5039 223.52344 541.75 223.125 L 541.75 224.125 L 542.84375 224.125 L 542.84375 220.40625 C 542.84374 219.40625 542.59374 218.64844 542.125 218.15625 C 541.65624 217.66407 540.94921 217.40626 540 217.40625 z M 547.90625 217.40625 C 546.88281 217.40626 546.05859 217.73048 545.46875 218.34375 C 544.88281 218.95704 544.59375 219.80469 544.59375 220.875 C 544.59375 221.92969 544.88672 222.75391 545.46875 223.375 C 546.05078 223.99609 546.82422 224.3125 547.8125 224.3125 C 548.17578 224.3125 548.52343 224.25781 548.84375 224.1875 C 549.16796 224.11719 549.48046 224.01563 549.78125 223.875 L 549.78125 222.875 C 549.47656 223.04297 549.18359 223.19531 548.875 223.28125 C 548.57031 223.36328 548.25 223.40625 547.9375 223.40625 C 547.23828 223.40625 546.69922 223.16016 546.3125 222.71875 C 545.92578 222.27344 545.71875 221.67578 545.71875 220.875 C 545.71875 220.07422 545.92578 219.44141 546.3125 219 C 546.69922 218.55469 547.23828 218.34376 547.9375 218.34375 C 548.25 218.34376 548.57031 218.38282 548.875 218.46875 C 549.18359 218.55079 549.47656 218.67579 549.78125 218.84375 L 549.78125 217.8125 C 549.48437 217.67579 549.1914 217.59766 548.875 217.53125 C 548.55859 217.46094 548.23828 217.40626 547.90625 217.40625 z M 626.125 219.125 C 626.65625 219.125 627.0664 219.29297 627.375 219.65625 C 627.68749 220.01953 627.84374 220.52344 627.84375 221.15625 C 627.84374 221.78516 627.68749 222.28906 627.375 222.65625 C 627.0664 223.01953 626.65625 223.1875 626.125 223.1875 C 625.59375 223.1875 625.15624 223.01953 624.84375 222.65625 C 624.53515 222.28906 624.37499 221.78516 624.375 221.15625 C 624.37499 220.52344 624.53515 220.01953 624.84375 219.65625 C 625.15624 219.29297 625.59375 219.125 626.125 219.125 z M 540.6875 220.84375 L 541.75 220.84375 L 541.75 221.0625 C 541.74999 221.76563 541.58203 222.35547 541.21875 222.78125 C 540.85937 223.20313 540.3789 223.40625 539.78125 223.40625 C 539.34765 223.40625 539.0039 223.28516 538.75 223.0625 C 538.5 222.83594 538.375 222.53906 538.375 222.15625 C 538.375 221.67578 538.53906 221.32422 538.875 221.125 C 539.21093 220.92578 539.8164 220.84375 540.6875 220.84375 z M 608.15625 222.46875 L 608.15625 223.96875 L 609.375 223.96875 L 609.375 222.46875 L 608.15625 222.46875 z M 619.625 222.46875 L 619.625 223.96875 L 620.84375 223.96875 L 620.84375 222.46875 L 619.625 222.46875 z " id="text6368"/>
  <text x="204.08333" y="243.80101" style="font-size:14px;font-family:Bitstream Vera Sans" id="text6374" xml:space="preserve"><tspan x="204.08333" y="243.80101" style="font-size:12px" id="tspan6376">Xenix OS</tspan></text>
  <text x="254.64285" y="289.6915" style="font-size:14px;font-family:Bitstream Vera Sans" id="text6384" xml:space="preserve"><tspan x="254.64285" y="289.6915" style="font-size:12px" id="tspan6386">GNU Project</tspan></text>
  <text x="210.85251" y="86.713333" style="font-size:18px;font-style:normal;font-weight:normal;fill:#000000;fill-opacity:1;stroke:none;stroke-width:1px;stroke-linecap:butt;stroke-linejoin:miter;stroke-opacity:1;font-family:Bitstream Vera Sans" id="text6536" xml:space="preserve"><tspan x="210.85251" y="86.713333" id="tspan6538">BSD family</tspan></text>
  <text x="12.15748" y="16.595623" style="font-size:14px;font-family:Bitstream Vera Sans" id="text6544" xml:space="preserve"><tspan x="12.15748" y="16.595623" style="font-size:14px" id="tspan6546">1970</tspan></text>
  <text x="182.30084" y="16.595623" style="font-size:14px;font-family:Bitstream Vera Sans" id="text6548" xml:space="preserve"><tspan x="182.30084" y="16.595623" style="font-size:14px" id="tspan6550">1980</tspan></text>
  <text x="351.9223" y="16.595623" style="font-size:14px;font-family:Bitstream Vera Sans" id="text6552" xml:space="preserve"><tspan x="351.9223" y="16.595623" style="font-size:14px" id="tspan6554">1990</tspan></text>
  <text x="521.54376" y="16.595623" style="font-size:14px;font-family:Bitstream Vera Sans" id="text6556" xml:space="preserve"><tspan x="521.54376" y="16.595623" style="font-size:14px" id="tspan6558">2000</tspan></text>
  <text x="584.17322" y="15.029884" style="font-size:13px;font-family:Bitstream Vera Sans" id="text6560" xml:space="preserve"><tspan x="584.17322" y="15.029884" style="font-size:13px" id="tspan6562">Time</tspan></text>
  <text x="150.39233" y="162.88562" style="font-size:14px;font-family:Bitstream Vera Sans" id="text6568" xml:space="preserve"><tspan x="150.39233" y="162.88562" style="font-size:12px" id="tspan6570">Bill Joy</tspan></text>
  <text x="203.10545" y="264.57083" style="font-size:14px;font-family:Bitstream Vera Sans" id="text6572" xml:space="preserve"><tspan x="203.10545" y="264.57083" style="font-size:12px" id="tspan6574">Microsoft/SCO</tspan></text>
  <text x="250.07755" y="311.02103" style="font-size:14px;font-family:Bitstream Vera Sans" id="text6576" xml:space="preserve"><tspan x="250.07755" y="311.02103" style="font-size:12px" id="tspan6578">Richard Stallman</tspan></text>
  <text x="492.76669" y="195.24417" style="font-size:14px;font-family:Bitstream Vera Sans" id="text6580" xml:space="preserve"><tspan x="492.76669" y="195.24417" style="font-size:12px" id="tspan6582">Darwin</tspan></text>
  <text x="610.16675" y="44.778877" style="font-size:14px;font-family:Bitstream Vera Sans" id="text9553" xml:space="preserve"><tspan x="610.16675" y="44.778877" style="font-size:12px" id="tspan9555">6.2</tspan></text>
  <text x="610.9101" y="76.886017" style="font-size:14px;font-family:Bitstream Vera Sans" id="text9565" xml:space="preserve"><tspan x="610.9101" y="76.886017" style="font-size:12px" id="tspan9567">3.1</tspan></text>
  <text x="610.00757" y="107.46104" style="font-size:14px;font-family:Bitstream Vera Sans" id="text9569" xml:space="preserve"><tspan x="610.00757" y="107.46104" style="font-size:12px" id="tspan9571">4.1</tspan></text>
  <text x="613.91315" y="173.25697" style="font-size:14px;font-family:Bitstream Vera Sans" id="text9573" xml:space="preserve"><tspan x="613.91315" y="173.25697" style="font-size:12px" id="tspan9575">10</tspan></text>
  <text x="429.91235" y="211.16341" style="font-size:14px;font-family:Bitstream Vera Sans" id="text9581" xml:space="preserve"><tspan x="429.91235" y="211.16341" style="font-size:12px" id="tspan9583">3.3</tspan></text>
  <rect width="248" height="22.142857" x="385.65475" y="309.39285" style="fill:url(#linearGradient2935);fill-opacity:1;stroke:#000000;stroke-width:1;stroke-linecap:round;stroke-linejoin:round;stroke-miterlimit:4;stroke-dasharray:none;stroke-opacity:1" id="rect5437"/>
  <rect width="306.30951" height="24.357143" x="45.392857" y="376.92856" style="fill:url(#linearGradient2932);fill-opacity:1;stroke:#000000;stroke-width:1;stroke-linecap:round;stroke-linejoin:round;stroke-miterlimit:4;stroke-dasharray:none;stroke-opacity:1" id="rect5445"/>
  <rect width="384.17856" height="21.404762" x="249.10715" y="413.46429" style="fill:url(#linearGradient2929);fill-opacity:1;stroke:#000000;stroke-width:1;stroke-linecap:round;stroke-linejoin:round;stroke-miterlimit:4;stroke-dasharray:none;stroke-opacity:1" id="rect5447"/>
  <rect width="333.61905" height="22.880953" x="300.03571" y="444.09525" style="fill:url(#linearGradient2926);fill-opacity:1;stroke:#000000;stroke-width:1;stroke-linecap:round;stroke-linejoin:round;stroke-miterlimit:4;stroke-dasharray:none;stroke-opacity:1" id="rect5449"/>
  <rect width="231.0238" height="25.095238" x="402.2619" y="472.88095" style="fill:url(#linearGradient2923);fill-opacity:1;stroke:#000000;stroke-width:1;stroke-linecap:round;stroke-linejoin:round;stroke-miterlimit:4;stroke-dasharray:none;stroke-opacity:1" id="rect5451"/>
  <rect width="214.04762" height="25.833334" x="419.2381" y="503.88095" style="fill:url(#linearGradient2920);fill-opacity:1;stroke:#000000;stroke-width:1;stroke-linecap:round;stroke-linejoin:round;stroke-miterlimit:4;stroke-dasharray:none;stroke-opacity:1" id="rect5453"/>
  <text x="185.80072" y="558.34265" style="font-size:18px;font-style:normal;font-weight:normal;fill:#000000;fill-opacity:1;stroke:none;stroke-width:1px;stroke-linecap:butt;stroke-linejoin:miter;stroke-opacity:1;font-family:Bitstream Vera Sans" id="text6540" xml:space="preserve"><tspan x="185.80072" y="558.34265" id="tspan6542">System III &amp; V family</tspan></text>
  <path d="M 125.51987,344.35865 L 305.71004,344.35865" style="fill:none;fill-opacity:0.75;fill-rule:evenodd;stroke:#000000;stroke-width:1px;stroke-linecap:butt;stroke-linejoin:miter;stroke-opacity:1" id="path6697"/>
  <path d="M 317.01188,344.41008 L 304.38554,348.42691 L 304.38554,340.39324 L 317.01188,344.41008 z " style="fill:#000000;fill-opacity:1;stroke:none;stroke-width:1;stroke-linecap:round;stroke-linejoin:round;stroke-miterlimit:4;stroke-dasharray:none;stroke-opacity:1" id="path6752"/>
  <path d="M 324.39286,332.27381 L 316.64286,332.27381 L 316.64286,356.63096 L 503.01191,356.63096" style="fill:none;fill-opacity:0.75;fill-rule:evenodd;stroke:#000000;stroke-width:1px;stroke-linecap:butt;stroke-linejoin:miter;stroke-opacity:1" id="path6762"/>
  <path d="M 363.51191,356.63095 L 363.51191,326.36904 L 374.21429,326.36904" style="fill:none;fill-opacity:0.75;fill-rule:evenodd;stroke:#000000;stroke-width:1;stroke-linecap:butt;stroke-linejoin:miter;stroke-miterlimit:4;stroke-dasharray:4, 4;stroke-dashoffset:0;stroke-opacity:1" id="path6764"/>
  <path d="M 385.32518,326.18458 L 372.69884,330.20141 L 372.69884,322.16774 L 385.32518,326.18458 z " style="fill:#000000;fill-opacity:1;stroke:none;stroke-width:1;stroke-linecap:round;stroke-linejoin:round;stroke-miterlimit:4;stroke-dasharray:none;stroke-opacity:1" id="path7651"/>
  <path d="M 502.08929,356.63096 L 622.02976,356.63096" style="fill:none;fill-opacity:0.75;fill-rule:evenodd;stroke:#000000;stroke-width:1;stroke-linecap:butt;stroke-linejoin:miter;stroke-miterlimit:4;stroke-dasharray:4, 8;stroke-dashoffset:0;stroke-opacity:1" id="path7654"/>
  <path d="M 632.71148,356.71648 L 620.08514,360.73331 L 620.08514,352.69964 L 632.71148,356.71648 z " style="fill:#000000;fill-opacity:1;stroke:none;stroke-width:1;stroke-linecap:round;stroke-linejoin:round;stroke-miterlimit:4;stroke-dasharray:none;stroke-opacity:1" id="path8541"/>
  <g transform="translate(0,16)" id="g2098">
    <path d="M 190.05952,385.28571 L 190.05952,501.24205 L 413.22394,501.24205" style="fill:none;fill-opacity:0.75;fill-rule:evenodd;stroke:#000000;stroke-width:1px;stroke-linecap:butt;stroke-linejoin:miter;stroke-opacity:1" id="path9537"/>
    <path d="M 190.1065,468.62254 L 389.21599,468.62254" style="fill:none;fill-opacity:0.75;fill-rule:evenodd;stroke:#000000;stroke-width:1px;stroke-linecap:butt;stroke-linejoin:miter;stroke-opacity:1" id="path9539"/>
    <path d="M 190.1065,439.26499 L 288.48694,439.26499" style="fill:none;fill-opacity:0.75;fill-rule:evenodd;stroke:#000000;stroke-width:1px;stroke-linecap:butt;stroke-linejoin:miter;stroke-opacity:1" id="path9541"/>
    <path d="M 189.97602,404.42735 L 237.33955,404.42735" style="fill:none;fill-opacity:0.75;fill-rule:evenodd;stroke:#000000;stroke-width:1px;stroke-linecap:butt;stroke-linejoin:miter;stroke-opacity:1" id="path9543"/>
    <path d="M -56.095237,101.11905 L -76.023808,112.62482 L -76.023808,89.613283 L -56.095237,101.11905 z " transform="matrix(0.63358,0,0,0.349115,284.5431,369.1251)" style="fill:#000000;fill-opacity:1;stroke:none;stroke-width:1;stroke-linecap:round;stroke-linejoin:round;stroke-miterlimit:4;stroke-dasharray:none;stroke-opacity:1" id="path9545"/>
    <path d="M -56.095237,101.11905 L -76.023808,112.62482 L -76.023808,89.613283 L -56.095237,101.11905 z " transform="matrix(0.63358,0,0,0.349115,335.1686,404.0933)" style="fill:#000000;fill-opacity:1;stroke:none;stroke-width:1;stroke-linecap:round;stroke-linejoin:round;stroke-miterlimit:4;stroke-dasharray:none;stroke-opacity:1" id="path9547"/>
    <path d="M -56.095237,101.11905 L -76.023808,112.62482 L -76.023808,89.613283 L -56.095237,101.11905 z " transform="matrix(0.63358,0,0,0.349115,437.2025,433.1899)" style="fill:#000000;fill-opacity:1;stroke:none;stroke-width:1;stroke-linecap:round;stroke-linejoin:round;stroke-miterlimit:4;stroke-dasharray:none;stroke-opacity:1" id="path9549"/>
    <path d="M -56.095237,101.11905 L -76.023808,112.62482 L -76.023808,89.613283 L -56.095237,101.11905 z " transform="matrix(0.63358,0,0,0.349115,455.2085,466.0704)" style="fill:#000000;fill-opacity:1;stroke:none;stroke-width:1;stroke-linecap:round;stroke-linejoin:round;stroke-miterlimit:4;stroke-dasharray:none;stroke-opacity:1" id="path9551"/>
  </g>
  <text x="51.083344" y="392.41766" style="font-size:14px;font-family:Bitstream Vera Sans" id="text6398" xml:space="preserve"><tspan x="51.083344" y="392.41766" style="font-size:12px" id="tspan6400">Unix Time-Sharing System (Bell Labs)</tspan></text>
  <text x="257.2262" y="428.45575" style="font-size:14px;font-family:Bitstream Vera Sans" id="text6402" xml:space="preserve"><tspan x="257.2262" y="428.45575" style="font-size:12px" id="tspan6404">HP-UX</tspan></text>
  <text x="308.15475" y="459.29745" style="font-size:14px;font-family:Bitstream Vera Sans" id="text6406" xml:space="preserve"><tspan x="308.15475" y="459.29745" style="font-size:12px" id="tspan6408">AIX (IBM)</tspan></text>
  <text x="411.11905" y="489.19614" style="font-size:14px;font-family:Bitstream Vera Sans" id="text6410" xml:space="preserve"><tspan x="411.11905" y="489.19614" style="font-size:12px" id="tspan6412">UnixWare (Univel/SCO)</tspan></text>
  <text x="423.29761" y="520.55933" style="font-size:14px;font-family:Bitstream Vera Sans" id="text6414" xml:space="preserve"><tspan x="423.29761" y="520.55933" style="font-size:12px" id="tspan6416">IRIX (SGI)</tspan></text>
  <text x="392.55954" y="345.28796" style="font-size:14px;font-family:Bitstream Vera Sans" id="text6588" xml:space="preserve"><tspan x="392.55954" y="345.28796" style="font-size:12px" id="tspan6590">Linus Torvalds</tspan></text>
  <text x="320.53568" y="368.33975" style="font-size:14px;font-family:Bitstream Vera Sans" id="text6592" xml:space="preserve"><tspan x="320.53568" y="368.33975" style="font-size:12px" id="tspan6594">Andrew S. Tanenbaum</tspan></text>
  <text x="321.05759" y="346.94135" style="font-size:14px;font-family:Bitstream Vera Sans" id="text6596" xml:space="preserve"><tspan x="321.05759" y="346.94135" style="font-size:12px" id="tspan6598">Minix</tspan></text>
  <text x="15.217069" y="417.39951" style="font-size:14px;font-family:Bitstream Vera Sans" id="text6600" xml:space="preserve"><tspan x="15.217069" y="417.39951" style="font-size:12px" id="tspan6604">Ken Thompson</tspan><tspan x="15.217069" y="432.39951" style="font-size:12px" id="tspan6608">Dennis Ritchie (C language)</tspan></text>
  <text x="589.44049" y="350.29987" style="font-size:14px;font-family:Bitstream Vera Sans" id="text9589" xml:space="preserve"><tspan x="589.44049" y="350.29987" style="font-size:12px" id="tspan9591">3.1.2a</tspan></text>
  <text x="331.68237" y="392.41766" style="font-size:14px;font-family:Bitstream Vera Sans" id="text9593" xml:space="preserve"><tspan x="331.68237" y="392.41766" style="font-size:12px" id="tspan9595">10</tspan></text>
  <text x="591.65033" y="428.45575" style="font-size:14px;font-family:Bitstream Vera Sans" id="text9597" xml:space="preserve"><tspan x="591.65033" y="428.45575" style="font-size:12px" id="tspan9599">11i v2</tspan></text>
  <text x="587.67413" y="459.29745" style="font-size:14px;font-family:Bitstream Vera Sans" id="text9601" xml:space="preserve"><tspan x="587.67413" y="459.29745" style="font-size:12px" id="tspan9603">5 L 5.3</tspan></text>
  <text x="569.25745" y="489.19614" style="font-size:14px;font-family:Bitstream Vera Sans" id="text9605" xml:space="preserve"><tspan x="569.25745" y="489.19614" style="font-size:12px" id="tspan9607">7.1.4 MP2</tspan></text>
  <text x="590.04297" y="520.55933" style="font-size:14px;font-family:Bitstream Vera Sans" id="text9613" xml:space="preserve"><tspan x="590.04297" y="520.55933" style="font-size:12px" id="tspan9615">6.5.30</tspan></text>
  <path d="M 507.6875,280.78125 C 506.32031,280.78126 505.24218,281.19923 504.46875,282 C 503.69922,282.79688 503.3125,283.88282 503.3125,285.3125 C 503.3125,286.73828 503.69922,287.85547 504.46875,288.65625 C 505.24218,289.45313 506.32031,289.875 507.6875,289.875 C 508.31249,289.875 508.88671,289.78906 509.4375,289.625 C 509.98827,289.45703 510.51171,289.19922 510.96875,288.875 L 510.96875,285.125 L 507.84375,285.125 L 507.84375,286.09375 L 509.78125,286.09375 L 509.78125,288.4375 C 509.51952,288.58984 509.23437,288.70703 508.90625,288.78125 C 508.57812,288.85156 508.19921,288.875 507.78125,288.875 C 506.71093,288.875 505.91406,288.59766 505.375,288 C 504.83984,287.40235 504.5625,286.49219 504.5625,285.3125 C 504.5625,284.12891 504.83984,283.25391 505.375,282.65625 C 505.91406,282.0586 506.71093,281.75001 507.78125,281.75 C 508.32421,281.75001 508.85156,281.84376 509.34375,282.03125 C 509.83593,282.21876 510.28124,282.50391 510.71875,282.875 L 510.71875,281.625 C 510.28515,281.35157 509.82812,281.14063 509.3125,281 C 508.80078,280.85938 508.25781,280.78126 507.6875,280.78125 z M 513.125,280.9375 L 513.125,289.6875 L 514.28125,289.6875 L 514.28125,282.375 L 518.15625,289.6875 L 519.75,289.6875 L 519.75,280.9375 L 518.59375,280.9375 L 518.59375,288.25 L 514.71875,280.9375 L 513.125,280.9375 z M 521.96875,280.9375 L 521.96875,286.40625 C 521.96875,287.54688 522.25003,288.41797 522.8125,289 C 523.3789,289.58203 524.20706,289.875 525.3125,289.875 C 526.41406,289.875 527.25002,289.58203 527.8125,289 C 528.3789,288.41797 528.65627,287.54688 528.65625,286.40625 L 528.65625,280.9375 L 527.46875,280.9375 L 527.46875,286.25 C 527.46874,287.1875 527.30862,287.86719 526.96875,288.28125 C 526.6289,288.69141 526.07034,288.90625 525.3125,288.90625 C 524.55078,288.90625 523.99612,288.69141 523.65625,288.28125 C 523.3164,287.86719 523.15628,287.1875 523.15625,286.25 L 523.15625,280.9375 L 521.96875,280.9375 z " style="font-size:14px;font-family:Bitstream Vera Sans" id="text5847"/>
  <path d="M 385.32518,316.52198 L 372.69884,320.53881 L 372.69884,312.50514 L 385.32518,316.52198 z " style="fill:#000000;fill-opacity:1;stroke:none;stroke-width:1;stroke-linecap:round;stroke-linejoin:round;stroke-miterlimit:4;stroke-dasharray:none;stroke-opacity:1" id="path5859"/>
  <path d="M 397.41342,315.34375 L 397.41342,316.71875 L 398.47592,316.71875 L 398.47592,315.34375 L 397.41342,315.34375 z M 390.75717,315.71875 L 390.75717,324.46875 L 396.22592,324.46875 L 396.22592,323.46875 L 391.94467,323.46875 L 391.94467,315.71875 L 390.75717,315.71875 z M 403.88217,317.75 C 403.42513,317.75001 403.04623,317.83594 402.69467,318.03125 C 402.34701,318.22657 402.01498,318.54297 401.75717,318.9375 L 401.75717,317.90625 L 400.69467,317.90625 L 400.69467,324.46875 L 401.75717,324.46875 L 401.75717,320.75 C 401.75717,320.10938 401.95248,319.6211 402.28842,319.25 C 402.62435,318.87891 403.08139,318.68751 403.66342,318.6875 C 404.14779,318.68751 404.51498,318.84766 404.75717,319.15625 C 404.99935,319.46485 405.10091,319.91016 405.10092,320.53125 L 405.10092,324.46875 L 406.19467,324.46875 L 406.19467,320.5 C 406.19466,319.59375 405.98763,318.90235 405.60092,318.4375 C 405.2142,317.96876 404.63607,317.75001 403.88217,317.75 z M 397.41342,317.90625 L 397.41342,324.46875 L 398.47592,324.46875 L 398.47592,317.90625 L 397.41342,317.90625 z M 408.22592,317.90625 L 408.22592,321.875 C 408.22592,322.77735 408.42904,323.46875 408.81967,323.9375 C 409.21029,324.40625 409.78451,324.625 410.53842,324.625 C 410.99545,324.625 411.38217,324.53516 411.72592,324.34375 C 412.07357,324.14844 412.4017,323.86719 412.66342,323.46875 L 412.66342,324.46875 L 413.72592,324.46875 L 413.72592,317.90625 L 412.66342,317.90625 L 412.66342,321.625 C 412.66341,322.26563 412.47201,322.78516 412.13217,323.15625 C 411.79623,323.52734 411.3392,323.6875 410.75717,323.6875 C 410.27279,323.6875 409.9056,323.55859 409.66342,323.25 C 409.42123,322.9375 409.31967,322.46485 409.31967,321.84375 L 409.31967,317.90625 L 408.22592,317.90625 z M 415.38217,317.90625 L 417.72592,321.03125 L 415.16342,324.46875 L 416.44467,324.46875 L 418.35092,321.875 L 420.25717,324.46875 L 421.53842,324.46875 L 419.03842,321.09375 L 421.41342,317.90625 L 420.13217,317.90625 L 418.41342,320.25 L 416.66342,317.90625 L 415.38217,317.90625 z " style="font-size:14px;font-family:Bitstream Vera Sans" id="text5861"/>
  <path d="M 523.76452,207.22024 L 526.53238,200.39286" style="fill:none;fill-opacity:0.75;fill-rule:evenodd;stroke:#000000;stroke-width:1px;stroke-linecap:butt;stroke-linejoin:miter;stroke-opacity:1" id="path3464"/>
  <path d="M 528.37765,201.68451 L 524.72514,200.47186 L 527.60159,197.91502 L 528.37765,201.68451 z " style="fill:#000000;fill-opacity:1;stroke:none;stroke-width:1;stroke-linecap:round;stroke-linejoin:round;stroke-miterlimit:4;stroke-dasharray:4, 8;stroke-dashoffset:0;stroke-opacity:1" id="path3466"/>
  <path d="M 532.77547,207.22024 L 535.54332,200.39286" style="fill:none;fill-opacity:0.75;fill-rule:evenodd;stroke:#000000;stroke-width:1px;stroke-linecap:butt;stroke-linejoin:miter;stroke-opacity:1" id="path3468"/>
  <path d="M 537.38861,201.68451 L 533.7361,200.47186 L 536.61255,197.91502 L 537.38861,201.68451 z " style="fill:#000000;fill-opacity:1;stroke:none;stroke-width:1;stroke-linecap:round;stroke-linejoin:round;stroke-miterlimit:4;stroke-dasharray:4, 8;stroke-dashoffset:0;stroke-opacity:1" id="path3470"/>
  <path d="M 541.78635,207.22024 L 544.5542,200.39286" style="fill:none;fill-opacity:0.75;fill-rule:evenodd;stroke:#000000;stroke-width:1px;stroke-linecap:butt;stroke-linejoin:miter;stroke-opacity:1" id="path3472"/>
  <path d="M 546.39946,201.68451 L 542.74695,200.47186 L 545.6234,197.91502 L 546.39946,201.68451 z " style="fill:#000000;fill-opacity:1;stroke:none;stroke-width:1;stroke-linecap:round;stroke-linejoin:round;stroke-miterlimit:4;stroke-dasharray:4, 8;stroke-dashoffset:0;stroke-opacity:1" id="path3474"/>
  <path d="M 550.79724,207.22024 L 553.56509,200.39286" style="fill:none;fill-opacity:0.75;fill-rule:evenodd;stroke:#000000;stroke-width:1px;stroke-linecap:butt;stroke-linejoin:miter;stroke-opacity:1" id="path3476"/>
  <path d="M 555.41038,201.68451 L 551.75787,200.47186 L 554.63432,197.91502 L 555.41038,201.68451 z " style="fill:#000000;fill-opacity:1;stroke:none;stroke-width:1;stroke-linecap:round;stroke-linejoin:round;stroke-miterlimit:4;stroke-dasharray:4, 8;stroke-dashoffset:0;stroke-opacity:1" id="path3478"/>
</svg>